<svg width="350" height="220" viewBox="0 0 350 220" fill="none" xmlns="http://www.w3.org/2000/svg">
<path d="M316.438 0.812012H33.562C15.324 0.812012 0.484009 15.651 0.484009 33.89V186.11C0.484009 204.348 15.323 219.188 33.562 219.188H316.437C334.675 219.188 349.515 204.349 349.515 186.11V33.89C349.512 15.649 334.676 0.812012 316.438 0.812012ZM336.092 186.107C336.092 196.946 327.276 205.765 316.434 205.765H33.559C22.72 205.765 13.901 196.95 13.901 186.107V33.887C13.901 23.048 22.717 14.229 33.559 14.229H316.434C327.273 14.229 336.092 23.044 336.092 33.887V186.107ZM85.92 128.921C63.637 110.812 28.841 126.586 28.841 156.481C28.841 186.739 63.82 202.248 85.96 184.177C108.778 202.469 143.117 186.22 143.117 156.481C143.118 126.762 108.627 110.755 85.92 128.921ZM64.084 178.465C52.055 178.465 42.264 168.602 42.264 156.481C42.264 144.452 52.055 134.661 64.084 134.661C76.066 134.661 85.894 144.688 85.894 156.481C85.895 167.277 77.193 178.465 64.084 178.465ZM94.613 173.959C101.144 162.654 100.319 148.642 94.692 139.062C108.619 128.437 129.696 138.14 129.696 156.482C129.695 174.852 108.681 184.854 94.613 173.959ZM293.658 65.533H175C171.296 65.533 168.29 68.539 168.29 72.243C168.29 75.947 171.296 78.953 175 78.953H293.658C297.362 78.953 300.368 75.947 300.368 72.243C300.368 68.538 297.362 65.533 293.658 65.533ZM293.658 94.553H214.549C210.845 94.553 207.839 97.559 207.839 101.263C207.839 104.967 210.845 107.973 214.549 107.973H293.658C297.362 107.973 300.368 104.967 300.368 101.263C300.368 97.562 297.362 94.553 293.658 94.553Z" fill="#EE3338"/>
</svg>
